<svg xmlns="http://www.w3.org/2000/svg" viewBox="0 0 512 512">
  <rect width="512" height="512" rx="96" fill="#ffffff"/>
  <circle cx="256" cy="256" r="206" fill="#1a5276"/>
  <path d="M256 54a202 202 0 0 1 175 101l-87 50a102 102 0 0 0-88-51z" fill="#f39c12"/>
  <path d="M431 155a202 202 0 0 1 0 202l-87-50a102 102 0 0 0 0-102z" fill="#27ae60"/>
  <path d="M431 357A202 202 0 0 1 256 458V358a102 102 0 0 0 88-51z" fill="#1a5276"/>
  <circle cx="256" cy="256" r="128" fill="#ffffff"/>
  <text x="256" y="282" text-anchor="middle" font-family="Arial, Helvetica, sans-serif" font-size="116" font-weight="900" font-style="italic" fill="#1a5276">KH</text>
</svg>
